<svg xmlns="http://www.w3.org/2000/svg" xmlns:xlink="http://www.w3.org/1999/xlink" aria-hidden="true" role="img" class="iconify iconify--logos" width="31.88" height="32" preserveAspectRatio="xMidYMid meet" viewBox="0 0 256 257"><defs><linearGradient id="IconifyId1813088fe1fbc6666666" x1="-.828%" x2="57.636%" y1="7.652%" y2="78.411%"><stop offset="0%" stop-color="#61DAFB"></stop><stop offset="100%" stop-color="#0096DC"></stop></linearGradient></defs><path fill="url(#IconifyId1813088fe1fbc6666666)" d="M210.483 71.824a108.147 108.147 0 0 0-19.864-1.46c-27.775 0-49.996 12.177-63.797 29.963-13.8-17.786-36.022-29.963-63.797-29.963a107.728 107.728 0 0 0-19.864 1.46C13.004 100.703 0 133.94 0 171.999c0 47.62 19.143 84.032 47.645 109.803a147.74 147.74 0 0 0 35.582 24.222c3.148 1.4 6.374 2.406 9.67 3.007a152.6 152.6 0 0 0 14.016.92c8.496 0 16.992-.595 25.488-1.786a147.745 147.745 0 0 0 35.58-24.222C211.885 256.03 231 219.618 231 171.999c0-38.059-13.004-71.296-30.517-100.175ZM86.364 205.83c-1.822 3.318-3.695 6.583-5.617 9.792-7.144 11.705-14.474 22.993-21.99 33.863c-3.74 5.207-7.557 10.308-11.45 15.302c-1.864 2.438-3.803 4.813-5.818 7.125c-1.295 1.5-2.61 2.969-3.945 4.398l-1.615 1.615l-1.616-1.615c-2.77-2.77-5.42-5.597-7.95-8.49c-2.53-2.892-4.906-5.852-7.125-8.818c-3.993-4.993-7.71-10.094-11.45-15.302c-7.516-10.87-14.846-22.158-21.99-33.863c-1.922-3.209-3.795-6.474-5.617-9.792c-3.75-6.782-7.043-13.843-9.88-21.182C1.846 173.23 0 172.114 0 171.999c0-32.158 10.678-61.317 29.454-84.584a86.37 86.37 0 0 1 15.848-1.176c22.22 0 40.004 9.746 52.374 23.821c12.37-14.075 30.154-23.821 52.374-23.821a86.37 86.37 0 0 1 15.848 1.176c18.776 23.267 29.454 52.426 29.454 84.584c0 .115-1.846 1.23-4.644 3.657c-2.837 7.339-6.13 14.399-9.88 21.182Z"></path></svg>